<svg width="210" height="52" viewBox="0 0 210 52" fill="none" xmlns="http://www.w3.org/2000/svg">
<g clip-path="url(#clip0_7642_26660)">
<path d="M0 26.0002C0 40.0181 11.3998 51.4223 25.4221 51.4223C39.4444 51.4223 50.8442 40.0181 50.8442 26.0002C50.8442 19.4083 48.3288 13.1598 43.7751 8.40546C43.3648 7.98176 42.6958 7.96838 42.2721 8.3787C41.8528 8.79348 41.8394 9.4714 42.2453 9.8951C45.5546 13.3472 47.6821 17.6645 48.4224 22.3029L45.0194 22.7489C44.4441 22.8247 44.0338 23.351 44.0962 23.9352C44.6314 28.7075 43.3291 33.4574 40.4345 37.2975C40.1848 37.6275 39.9216 37.9531 39.654 38.2653C39.2705 38.7113 39.3195 39.3892 39.7611 39.7772C39.9618 39.9512 40.2071 40.0359 40.4568 40.0359C40.7557 40.0359 41.05 39.911 41.2596 39.6657C41.5629 39.3178 41.8528 38.9521 42.1293 38.5909C45.1443 34.5902 46.6072 29.711 46.2995 24.7425L48.6633 24.4348C48.6989 24.9566 48.7212 25.4739 48.7212 26.0002C48.7212 38.8406 38.2714 49.2815 25.4221 49.2815C12.5728 49.2815 2.12297 38.8406 2.12297 26.0002C2.12297 24.9789 2.19879 23.9798 2.32367 22.9942L4.70532 23.3733C3.85346 29.4924 5.77126 35.5759 10.0663 40.2054C10.2759 40.4329 10.5569 40.5488 10.8423 40.5488C11.101 40.5488 11.3597 40.4507 11.5693 40.2589C12.0019 39.8575 12.0242 39.1751 11.6228 38.7425C7.55081 34.3449 5.856 28.4889 6.97993 22.6864C7.03345 22.3965 6.97547 22.1066 6.80599 21.8658C6.64097 21.625 6.38675 21.4689 6.10131 21.4198L2.69831 20.8757C5.04428 10.5017 14.3345 2.71893 25.4221 2.71893C29.7885 2.71893 34.0121 3.91868 37.6916 6.20667L36.3982 8.20922C27.3221 2.60297 15.2622 4.73932 8.7238 13.4274C7.97005 14.4265 7.30551 15.4969 6.74355 16.6074C6.48041 17.1337 6.68557 17.7804 7.20739 18.048C7.72921 18.3156 8.37146 18.106 8.6346 17.5797C9.13412 16.5851 9.73622 15.6218 10.4141 14.7253C15.057 8.5571 22.7952 6.06841 29.8643 7.7766L28.8786 11.0235C28.7983 11.2956 28.8251 11.5899 28.9589 11.8441C29.0927 12.0939 29.3202 12.2857 29.5878 12.366C34.1191 13.7486 37.5311 17.1694 38.9627 21.4599L36.6391 22.0799C35.0112 17.4504 30.6002 14.1232 25.4221 14.1232C18.8703 14.1232 13.5362 19.4618 13.5362 26.0181C13.5362 32.5743 18.8703 37.9129 25.4221 37.9129C27.9911 37.9129 30.4307 37.1101 32.4912 35.5848C32.964 35.2369 33.0666 34.5635 32.7187 34.0862C32.3753 33.609 31.7063 33.5064 31.2291 33.8588C29.5432 35.1076 27.5317 35.7721 25.4221 35.7721C20.0389 35.7721 15.6591 31.3969 15.6591 26.0225C15.6591 20.6482 20.0389 16.2729 25.4221 16.2729C30.8053 16.2729 35.1851 20.6482 35.1851 26.0225C35.1851 27.2446 34.9621 28.4399 34.5205 29.5727C34.3065 30.1213 34.5741 30.7457 35.1182 30.9642C35.6668 31.1828 36.2823 30.9107 36.5008 30.3621C37.0405 28.9795 37.317 27.5256 37.317 26.0225C37.317 25.3937 37.2635 24.7737 37.1698 24.1627L39.4845 23.5472C39.6228 24.35 39.6986 25.1796 39.6986 26.0225C39.6986 33.89 33.2985 40.2857 25.4221 40.2857C17.5457 40.2857 11.1456 33.89 11.1456 26.0225C11.1456 18.1551 17.0462 12.2277 24.5747 11.7862C25.1634 11.7549 25.6094 11.242 25.5782 10.6578C25.547 10.0646 25.0385 9.61412 24.4543 9.65426C15.7974 10.1582 9.02708 17.3523 9.02708 26.0315C9.02708 34.7106 16.3816 42.4354 25.4266 42.4354C28.0624 42.4354 30.56 41.8065 32.7678 40.696L34.1058 42.7164C27.9955 45.999 20.6945 45.5708 14.7939 41.5077C14.3077 41.1777 13.6521 41.3026 13.3176 41.7887C12.9831 42.2793 13.1125 42.9483 13.5986 43.2783C17.2424 45.7849 21.3769 47.0515 25.489 47.0471C29.1819 47.0471 32.8659 46.0302 36.1841 43.9919C36.4339 43.8403 36.6034 43.595 36.6703 43.3051C36.7372 43.0241 36.6747 42.7253 36.5186 42.48L34.6276 39.6077C38.9806 36.6552 41.8439 31.6645 41.8439 26.0225C41.8439 19.1095 37.6247 13.0706 31.2424 10.6711L31.9337 8.41438C33.6196 9.03432 35.252 9.90402 36.755 11.0413C39.4801 13.0885 41.5852 15.8358 42.8608 18.9757C43.0258 19.3905 43.4272 19.6447 43.8464 19.6447C43.9802 19.6447 44.114 19.6179 44.2434 19.5644C44.7875 19.3414 45.0462 18.717 44.8277 18.1684C43.4361 14.7298 41.1348 11.7148 38.1778 9.4491L40.0822 6.50103C40.3989 6.01043 40.2651 5.35926 39.7923 5.02922C35.5285 2.11237 30.569 0.578125 25.4221 0.578125C11.3998 0.578125 0 11.9824 0 26.0002Z" fill="url(#paint0_linear_7642_26660)"/>
<path d="M64.2244 43.1994V14.5794C64.2244 14.4323 64.3359 14.3208 64.483 14.3208H70.6513C70.7806 14.3208 70.8921 14.4144 70.9099 14.5393L71.5165 18.2679C72.4531 16.8541 73.7019 15.7346 75.2451 14.8916C76.7882 14.0487 78.5856 13.625 80.6239 13.625C84.9768 13.625 88.1122 15.2574 90.0077 18.5087C90.1014 18.6737 90.3199 18.6737 90.4314 18.5266C91.4617 17.0771 92.8176 15.8996 94.4722 15.0388C96.2518 14.1022 98.2008 13.625 100.31 13.625C104.11 13.625 107.032 14.7623 109.065 17.0414C111.099 19.3204 112.112 22.6432 112.112 27.0274V43.2217C112.112 43.3689 112 43.4804 111.853 43.4804H104.86C104.712 43.4804 104.601 43.3689 104.601 43.2217V27.7053C104.601 25.2077 104.124 23.2809 103.169 21.9385C102.215 20.596 100.725 19.9359 98.7271 19.9359C96.729 19.9359 95.0565 20.6897 93.8255 22.1749C92.5945 23.66 91.9701 25.7384 91.9701 28.3966V43.1771C91.9701 43.3243 91.8586 43.4358 91.7115 43.4358H84.7182C84.571 43.4358 84.4595 43.3243 84.4595 43.1771V27.7053C84.4595 25.2077 83.9644 23.2809 82.9921 21.9385C82.0198 20.596 80.4945 19.9359 78.4741 19.9359C76.4537 19.9359 74.8571 20.6897 73.6261 22.1749C72.3951 23.66 71.7707 25.7384 71.7707 28.3966V43.1771C71.7707 43.3243 71.6592 43.4358 71.512 43.4358H64.5187C64.3715 43.4358 64.26 43.3243 64.26 43.1771L64.2244 43.1949V43.1994Z" fill="white"/>
<path d="M130.505 44.1544C127.565 44.1544 124.961 43.53 122.682 42.2812C120.407 41.0324 118.623 39.2707 117.339 36.9916C116.054 34.717 115.394 32.09 115.394 29.1152C115.394 26.1404 116.036 23.4242 117.303 21.0738C118.57 18.7234 120.331 16.8858 122.593 15.5835C124.849 14.2812 127.494 13.6211 130.563 13.6211C133.426 13.6211 135.941 14.2455 138.145 15.4943C140.33 16.7431 142.056 18.4691 143.287 20.6367C144.518 22.8043 145.142 25.2261 145.142 27.8887C145.142 28.3124 145.142 28.7718 145.107 29.249C145.089 29.7262 145.053 30.2034 145.017 30.7163H123.168C123.021 30.7163 122.891 30.8635 122.891 31.0107C123.092 33.1426 123.881 34.8285 125.242 36.0595C126.602 37.2904 128.399 38.004 130.438 38.004C131.963 38.004 133.247 37.6561 134.291 36.9738C135.281 36.3137 136.035 35.4663 136.548 34.4405C136.584 34.3468 136.677 34.2933 136.766 34.2933H143.889C144.072 34.2933 144.201 34.4761 144.148 34.6412C143.595 36.3494 142.716 37.9104 141.521 39.3242C140.254 40.8317 138.675 42.0225 136.82 42.8877C134.965 43.7485 132.855 44.1722 130.505 44.1722V44.1544ZM130.558 19.7179C128.721 19.7179 127.088 20.2308 125.674 21.2789C124.332 22.2691 123.453 23.7186 123.03 25.6854C122.994 25.8505 123.123 26.0155 123.288 26.0155H137.186C137.333 26.0155 137.462 25.8683 137.462 25.7211C137.297 23.9416 136.601 22.5099 135.37 21.444C134.086 20.3067 132.471 19.7358 130.558 19.7358V19.7179Z" fill="white"/>
<path d="M148.826 43.1811V14.579C148.826 14.4318 148.938 14.3203 149.085 14.3203H156.078C156.226 14.3203 156.337 14.4318 156.337 14.579V43.1989C156.337 43.3461 156.226 43.4576 156.078 43.4576H149.085C148.938 43.4576 148.826 43.3461 148.826 43.1989V43.1811Z" fill="white"/>
<path d="M152.591 11.5899C151.213 11.5899 150.093 11.1841 149.214 10.359C148.331 9.53387 147.894 8.5036 147.894 7.23696C147.894 5.97031 148.336 4.96235 149.214 4.15063C150.098 3.34336 151.217 2.9375 152.591 2.9375C153.964 2.9375 155.088 3.34336 155.967 4.15063C156.85 4.95789 157.287 5.98815 157.287 7.23696C157.287 8.48576 156.846 9.53387 155.967 10.359C155.084 11.1841 153.964 11.5899 152.591 11.5899Z" fill="white"/>
<path d="M161.292 43.0137V14.7595C161.292 14.5187 161.493 14.318 161.734 14.318H167.59C167.808 14.318 168.013 14.483 168.031 14.7015L168.526 18.5371C168.58 18.9608 169.115 19.05 169.351 18.72C170.324 17.324 171.537 16.1867 173.004 15.2858C174.712 14.2377 176.693 13.6891 178.972 13.6133C179.23 13.6133 179.449 13.814 179.449 14.0727V21.5432H177.339C175.689 21.5432 174.217 21.8019 172.933 22.3148C171.648 22.8277 170.64 23.7108 169.905 24.9596C169.186 26.2084 168.821 27.9522 168.821 30.1912V43.0226C168.821 43.2635 168.62 43.4642 168.379 43.4642H161.752C161.511 43.4642 161.31 43.2635 161.31 43.0226L161.292 43.0048V43.0137Z" fill="white"/>
<path d="M195.072 44.1571C192.245 44.1571 189.711 43.5149 187.473 42.2126C185.234 40.9102 183.432 39.1262 182.129 36.8338C180.827 34.5369 180.167 31.8965 180.167 28.8637C180.167 25.8309 180.827 23.1906 182.17 20.8937C183.49 18.5968 185.292 16.8172 187.548 15.5149C189.805 14.2304 192.338 13.5703 195.148 13.5703C197.958 13.5703 200.456 14.2126 202.695 15.5149C204.951 16.7994 206.735 18.6012 208.038 20.8937C209.34 23.1906 210 25.8309 210 28.8637C210 31.8965 209.34 34.5369 208.038 36.8338C206.735 39.1307 204.933 40.9102 202.659 42.2126C200.38 43.497 197.869 44.1571 195.077 44.1571H195.072ZM195.072 37.641C197.035 37.641 198.725 36.9051 200.175 35.4378C201.624 33.9704 202.342 31.785 202.342 28.8816C202.342 25.9781 201.606 23.7971 200.175 22.3253C198.725 20.858 197.035 20.1221 195.126 20.1221C193.217 20.1221 191.415 20.858 189.983 22.3253C188.552 23.7927 187.834 25.9781 187.834 28.8816C187.834 31.785 188.552 33.966 189.983 35.4378C191.415 36.9051 193.106 37.641 195.068 37.641H195.072Z" fill="white"/>
</g>
<defs>
<linearGradient id="paint0_linear_7642_26660" x1="0" y1="26.0002" x2="50.8442" y2="26.0002" gradientUnits="userSpaceOnUse">
<stop stop-color="#EF7967"/>
<stop offset="1" stop-color="#FBBF56"/>
</linearGradient>
<clipPath id="clip0_7642_26660">
<rect width="210" height="50.8442" fill="white" transform="translate(0 0.578125)"/>
</clipPath>
</defs>
</svg>
